<?xml version="1.0" encoding="UTF-8" standalone="no"?>
<!-- Created with Inkscape (http://www.inkscape.org/) -->
<svg xmlns:svg="http://www.w3.org/2000/svg" xmlns="http://www.w3.org/2000/svg" version="1.1" width="600" height="480" viewBox="0 0 600 480" id="svg3388">
  <desc id="desc3390">Produced by GNUPLOT 4.2 patchlevel 0 </desc>
  <defs id="defs3392"/>
  <g id="g3408" style="color:#ffffff;fill:none;stroke:currentColor;stroke-width:1;stroke-linecap:butt;stroke-linejoin:miter"/>
  <g id="g3800">
    <path d="m 63.9,410.6 13.5,0 m 483.9,0 -13.5,0" id="path3412" style="color:#000000;fill:none;stroke:currentColor;stroke-width:1;stroke-linecap:butt;stroke-linejoin:miter"/>
    <g transform="translate(51.3,417.3)" id="g3414" style="font-size:18px;text-anchor:end;color:#000000;fill:#000000;stroke:none;font-family:Bitstream Vera Sans">
      <g id="text3416">
        <path d="m -24.635742,-6.3896484 11.267578,0 0,1.4941406 -11.267578,0 0,-1.4941406" id="path3796"/>
        <path d="m -5.5195312,-7.2685547 c -0.7968802,7.3e-6 -1.4296921,0.2724679 -1.8984375,0.8173828 -0.4628943,0.5449278 -0.6943393,1.2919974 -0.694336,2.241211 -3.3e-6,0.9433626 0.2314417,1.6904322 0.694336,2.2412109 0.4687454,0.5449233 1.1015573,0.817384 1.8984375,0.8173828 0.7968682,1.2e-6 1.4267504,-0.2724595 1.8896484,-0.8173828 0.4687417,-0.5507787 0.7031165,-1.2978483 0.703125,-2.2412109 -8.5e-6,-0.9492136 -0.2343833,-1.6962832 -0.703125,-2.241211 -0.462898,-0.5449149 -1.0927802,-0.8173755 -1.8896484,-0.8173828 m 3.524414,-5.5634763 0,1.617187 c -0.4453215,-0.210926 -0.8964929,-0.372058 -1.3535156,-0.483398 -0.4511795,-0.111317 -0.8994213,-0.166981 -1.3447266,-0.166992 -1.1718806,1.1e-5 -2.068364,0.395519 -2.6894531,1.186523 -0.6152378,0.7910256 -0.9668,1.9863369 -1.0546875,3.5859376 0.3456998,-0.5097581 0.7792931,-0.8994061 1.3007813,-1.1689454 0.5214795,-0.275382 1.0956977,-0.4130772 1.7226562,-0.4130859 1.318352,8.7e-6 2.35839,0.4013755 3.1201172,1.2041016 0.7675682,0.7968816 1.1513569,1.8837946 1.1513672,3.2607422 -1.03e-5,1.3476591 -0.3984474,2.4287127 -1.1953125,3.24316402 C -3.134774,-0.1523436 -4.1953198,0.25488256 -5.5195312,0.25488281 -7.0371138,0.25488256 -8.1972689,-0.32519499 -9,-1.4853516 c -0.802736,-1.1660129 -1.204103,-2.8535112 -1.204102,-5.0625 -10e-7,-2.0742101 0.4921862,-3.7265524 1.4765629,-4.9570314 0.9843713,-1.236315 2.3056591,-1.854479 3.9638672,-1.854492 0.4453054,1.3e-5 0.8935471,0.04396 1.3447266,0.131836 0.4570227,0.0879 0.9316316,0.21974 1.4238281,0.395508" id="path3798"/>
      </g>
    </g>
    <path d="m 63.9,348.9 13.5,0 m 483.9,0 -13.5,0" id="path3418" style="color:#000000;fill:none;stroke:currentColor;stroke-width:1;stroke-linecap:butt;stroke-linejoin:miter"/>
    <g transform="translate(51.3,355.6)" id="g3420" style="font-size:18px;text-anchor:end;color:#000000;fill:#000000;stroke:none;font-family:Bitstream Vera Sans">
      <g id="text3422">
        <path d="m -24.635742,-6.3896484 11.267578,0 0,1.4941406 -11.267578,0 0,-1.4941406" id="path3791"/>
        <path d="m -4.6582031,-11.575195 -4.4824219,7.0048825 4.4824219,0 0,-7.0048825 m -0.4658203,-1.546875 2.2324218,0 0,8.5517575 1.8720704,0 0,1.4765625 -1.8720704,0 0,3.09375 -1.7666015,0 0,-3.09375 -5.9238279,0 0,-1.7138672 5.4580076,-8.3144528" id="path3793"/>
      </g>
    </g>
    <path d="m 63.9,287.3 13.5,0 m 483.9,0 -13.5,0" id="path3424" style="color:#000000;fill:none;stroke:currentColor;stroke-width:1;stroke-linecap:butt;stroke-linejoin:miter"/>
    <g transform="translate(51.3,294)" id="g3426" style="font-size:18px;text-anchor:end;color:#000000;fill:#000000;stroke:none;font-family:Bitstream Vera Sans">
      <g id="text3428">
        <path d="m -24.635742,-6.3896484 11.267578,0 0,1.4941406 -11.267578,0 0,-1.4941406" id="path3786"/>
        <path d="m -8.0068359,-1.4941406 6.196289,0 0,1.4941406 -8.3320311,0 0,-1.4941406 c 0.673826,-0.6972635 1.5908173,-1.6318328 2.7509764,-2.803711 1.1660104,-1.1777289 1.8984316,-1.9365172 2.1972657,-2.2763671 0.5683525,-0.6386647 0.9638599,-1.1777267 1.1865234,-1.6171876 0.2285079,-0.4453038 0.3427656,-0.8818268 0.3427734,-1.3095703 -7.8e-6,-0.6972554 -0.2461013,-1.2656144 -0.7382812,-1.7050784 -0.4863347,-0.439441 -1.1220763,-0.659168 -1.9072266,-0.659179 -0.5566452,1.1e-5 -1.1455118,0.09669 -1.7666015,0.290039 -0.6152372,0.19337 -1.2744162,0.486339 -1.9775396,0.878906 l 0,-1.792969 c 0.7148421,-0.287096 1.3828102,-0.503893 2.0039067,-0.65039 0.6210898,-0.146472 1.1894486,-0.219714 1.7050782,-0.219727 1.3593685,1.3e-5 2.4433518,0.339857 3.2519531,1.019531 0.8085846,0.679699 1.212881,1.587902 1.2128906,2.7246096 -9.6e-6,0.5390716 -0.1025485,1.0517664 -0.3076172,1.538086 -0.1992278,0.4804763 -0.5654384,1.0488351 -1.0986328,1.7050781 -0.1464924,0.1699281 -0.6123122,0.6621151 -1.3974609,1.4765625 -0.7851623,0.8085978 -1.892583,1.9423858 -3.3222656,3.4013672" id="path3788"/>
      </g>
    </g>
    <path d="m 63.9,225.6 13.5,0 m 483.9,0 -13.5,0" id="path3430" style="color:#000000;fill:none;stroke:currentColor;stroke-width:1;stroke-linecap:butt;stroke-linejoin:miter"/>
    <g transform="translate(51.3,232.3)" id="g3432" style="font-size:18px;text-anchor:end;color:#000000;fill:#000000;stroke:none;font-family:Bitstream Vera Sans">
      <g id="text3434">
        <path d="m -5.7392578,-11.953125 c -0.9140673,1.2e-5 -1.6025432,0.451183 -2.0654297,1.353516 -0.4570344,0.8964937 -0.6855498,2.2470783 -0.6855469,4.0517574 -2.9e-6,1.7988329 0.2285125,3.1494175 0.6855469,4.0517578 0.4628865,0.896486 1.1513624,1.3447278 2.0654297,1.3447266 0.9199152,1.2e-6 1.6083911,-0.4482406 2.0654297,-1.3447266 0.4628823,-0.9023403 0.6943274,-2.2529249 0.6943359,-4.0517578 -8.5e-6,-1.8046791 -0.2314536,-3.1552637 -0.6943359,-4.0517574 -0.4570386,-0.902333 -1.1455145,-1.353504 -2.0654297,-1.353516 m 0,-1.40625 c 1.4706959,1.3e-5 2.5927651,0.583021 3.3662109,1.749023 0.779287,1.160167 1.1689351,2.8476655 1.1689453,5.0625004 -1.02e-5,2.2089888 -0.3896583,3.8964871 -1.1689453,5.0625 -0.7734458,1.16015661 -1.895515,1.74023416 -3.3662109,1.74023441 -1.4707074,-2.5e-7 -2.5957063,-0.5800778 -3.375,-1.74023441 -0.7734391,-1.1660129 -1.1601572,-2.8535112 -1.1601562,-5.0625 -10e-7,-2.2148349 0.3867171,-3.9023334 1.1601562,-5.0625004 0.7792937,-1.166002 1.9042926,-1.74901 3.375,-1.749023" id="path3783"/>
      </g>
    </g>
    <path d="m 63.9,163.9 13.5,0 m 483.9,0 -13.5,0" id="path3436" style="color:#000000;fill:none;stroke:currentColor;stroke-width:1;stroke-linecap:butt;stroke-linejoin:miter"/>
    <g transform="translate(51.3,170.6)" id="g3438" style="font-size:18px;text-anchor:end;color:#000000;fill:#000000;stroke:none;font-family:Bitstream Vera Sans">
      <g id="text3440">
        <path d="m -8.0068359,-1.4941406 6.196289,0 0,1.4941406 -8.3320311,0 0,-1.4941406 c 0.673826,-0.6972635 1.5908173,-1.6318328 2.7509764,-2.803711 1.1660104,-1.1777289 1.8984316,-1.9365172 2.1972657,-2.2763671 0.5683525,-0.6386647 0.9638599,-1.1777267 1.1865234,-1.6171876 0.2285079,-0.4453038 0.3427656,-0.8818268 0.3427734,-1.3095703 -7.8e-6,-0.6972554 -0.2461013,-1.2656144 -0.7382812,-1.7050784 -0.4863347,-0.439441 -1.1220763,-0.659168 -1.9072266,-0.659179 -0.5566452,1.1e-5 -1.1455118,0.09669 -1.7666015,0.290039 -0.6152372,0.19337 -1.2744162,0.486339 -1.9775396,0.878906 l 0,-1.792969 c 0.7148421,-0.287096 1.3828102,-0.503893 2.0039067,-0.65039 0.6210898,-0.146472 1.1894486,-0.219714 1.7050782,-0.219727 1.3593685,1.3e-5 2.4433518,0.339857 3.2519531,1.019531 0.8085846,0.679699 1.212881,1.587902 1.2128906,2.7246096 -9.6e-6,0.5390716 -0.1025485,1.0517664 -0.3076172,1.538086 -0.1992278,0.4804763 -0.5654384,1.0488351 -1.0986328,1.7050781 -0.1464924,0.1699281 -0.6123122,0.6621151 -1.3974609,1.4765625 -0.7851623,0.8085978 -1.892583,1.9423858 -3.3222656,3.4013672" id="path3780"/>
      </g>
    </g>
    <path d="m 63.9,102.3 13.5,0 m 483.9,0 -13.5,0" id="path3442" style="color:#000000;fill:none;stroke:currentColor;stroke-width:1;stroke-linecap:butt;stroke-linejoin:miter"/>
    <g transform="translate(51.3,109)" id="g3444" style="font-size:18px;text-anchor:end;color:#000000;fill:#000000;stroke:none;font-family:Bitstream Vera Sans">
      <g id="text3446">
        <path d="m -4.6582031,-11.575195 -4.4824219,7.0048825 4.4824219,0 0,-7.0048825 m -0.4658203,-1.546875 2.2324218,0 0,8.5517575 1.8720704,0 0,1.4765625 -1.8720704,0 0,3.09375 -1.7666015,0 0,-3.09375 -5.9238279,0 0,-1.7138672 5.4580076,-8.3144528" id="path3777"/>
      </g>
    </g>
    <path d="m 63.9,40.6 13.5,0 m 483.9,0 -13.5,0" id="path3448" style="color:#000000;fill:none;stroke:currentColor;stroke-width:1;stroke-linecap:butt;stroke-linejoin:miter"/>
    <g transform="translate(51.3,47.3)" id="g3450" style="font-size:18px;text-anchor:end;color:#000000;fill:#000000;stroke:none;font-family:Bitstream Vera Sans">
      <g id="text3452">
        <path d="m -5.5195312,-7.2685547 c -0.7968802,7.3e-6 -1.4296921,0.2724679 -1.8984375,0.8173828 -0.4628943,0.5449278 -0.6943393,1.2919974 -0.694336,2.241211 -3.3e-6,0.9433626 0.2314417,1.6904322 0.694336,2.2412109 0.4687454,0.5449233 1.1015573,0.817384 1.8984375,0.8173828 0.7968682,1.2e-6 1.4267504,-0.2724595 1.8896484,-0.8173828 0.4687417,-0.5507787 0.7031165,-1.2978483 0.703125,-2.2412109 -8.5e-6,-0.9492136 -0.2343833,-1.6962832 -0.703125,-2.241211 -0.462898,-0.5449149 -1.0927802,-0.8173755 -1.8896484,-0.8173828 m 3.524414,-5.5634763 0,1.617187 c -0.4453215,-0.210926 -0.8964929,-0.372058 -1.3535156,-0.483398 -0.4511795,-0.111317 -0.8994213,-0.166981 -1.3447266,-0.166992 -1.1718806,1.1e-5 -2.068364,0.395519 -2.6894531,1.186523 -0.6152378,0.7910256 -0.9668,1.9863369 -1.0546875,3.5859376 0.3456998,-0.5097581 0.7792931,-0.8994061 1.3007813,-1.1689454 0.5214795,-0.275382 1.0956977,-0.4130772 1.7226562,-0.4130859 1.318352,8.7e-6 2.35839,0.4013755 3.1201172,1.2041016 0.7675682,0.7968816 1.1513569,1.8837946 1.1513672,3.2607422 -1.03e-5,1.3476591 -0.3984474,2.4287127 -1.1953125,3.24316402 C -3.134774,-0.1523436 -4.1953198,0.25488256 -5.5195312,0.25488281 -7.0371138,0.25488256 -8.1972689,-0.32519499 -9,-1.4853516 c -0.802736,-1.1660129 -1.204103,-2.8535112 -1.204102,-5.0625 -10e-7,-2.0742101 0.4921862,-3.7265524 1.4765629,-4.9570314 0.9843713,-1.236315 2.3056591,-1.854479 3.9638672,-1.854492 0.4453054,1.3e-5 0.8935471,0.04396 1.3447266,0.131836 0.4570227,0.0879 0.9316316,0.21974 1.4238281,0.395508" id="path3774"/>
      </g>
    </g>
    <path d="m 63.9,426 0,-13.5 m 0,-387.3 0,13.5" id="path3454" style="color:#000000;fill:none;stroke:currentColor;stroke-width:1;stroke-linecap:butt;stroke-linejoin:miter"/>
    <g transform="translate(63.9,459.7)" id="g3456" style="font-size:18px;text-anchor:middle;color:#000000;fill:#000000;stroke:none;font-family:Bitstream Vera Sans">
      <g id="text3458">
        <path d="m -0.00878906,-11.953125 c -0.91406731,1.2e-5 -1.60254314,0.451183 -2.06542974,1.353516 -0.4570344,0.8964937 -0.6855498,2.2470783 -0.6855468,4.0517574 -3e-6,1.7988329 0.2285124,3.1494175 0.6855468,4.0517578 0.4628866,0.896486 1.15136243,1.3447278 2.06542974,1.3447266 0.91991523,1.2e-6 1.60839106,-0.4482406 2.06542966,-1.3447266 0.4628824,-0.9023403 0.6943275,-2.2529249 0.694336,-4.0517578 -8.5e-6,-1.8046791 -0.2314536,-3.1552637 -0.694336,-4.0517574 -0.4570386,-0.902333 -1.14551443,-1.353504 -2.06542966,-1.353516 m 0,-1.40625 c 1.47069596,1.3e-5 2.59276516,0.583021 3.36621096,1.749023 0.779287,1.160167 1.168935,2.8476655 1.1689453,5.0625004 -1.03e-5,2.2089888 -0.3896583,3.8964871 -1.1689453,5.0625 -0.7734458,1.16015661 -1.895515,1.74023416 -3.36621096,1.74023441 -1.47070734,-2.5e-7 -2.59570624,-0.5800778 -3.37500004,-1.74023441 -0.773439,-1.1660129 -1.1601574,-2.8535112 -1.1601562,-5.0625 -1.2e-6,-2.2148349 0.3867172,-3.9023334 1.1601562,-5.0625004 0.7792938,-1.166002 1.9042927,-1.74901 3.37500004,-1.749023" id="path3771"/>
      </g>
    </g>
    <path d="m 146.8,426 0,-13.5 m 0,-387.3 0,13.5" id="path3460" style="color:#000000;fill:none;stroke:currentColor;stroke-width:1;stroke-linecap:butt;stroke-linejoin:miter"/>
    <g transform="translate(146.8,459.7)" id="g3462" style="font-size:18px;text-anchor:middle;color:#000000;fill:#000000;stroke:none;font-family:Bitstream Vera Sans">
      <g id="text3464">
        <path d="m -8.6044922,-11.953125 c -0.9140673,1.2e-5 -1.6025428,0.451183 -2.0654298,1.353516 -0.457034,0.8964937 -0.68555,2.2470783 -0.685547,4.0517574 -3e-6,1.7988329 0.228513,3.1494175 0.685547,4.0517578 0.462887,0.896486 1.1513625,1.3447278 2.0654298,1.3447266 0.9199152,1.2e-6 1.6083911,-0.4482406 2.0654297,-1.3447266 0.4628824,-0.9023403 0.6943275,-2.2529249 0.6943359,-4.0517578 -8.4e-6,-1.8046791 -0.2314535,-3.1552637 -0.6943359,-4.0517574 -0.4570386,-0.902333 -1.1455145,-1.353504 -2.0654297,-1.353516 m 0,-1.40625 c 1.4706959,1.3e-5 2.5927651,0.583021 3.366211,1.749023 0.779287,1.160167 1.168935,2.8476655 1.1689453,5.0625004 -1.03e-5,2.2089888 -0.3896583,3.8964871 -1.1689453,5.0625 -0.7734459,1.16015661 -1.8955151,1.74023416 -3.366211,1.74023441 -1.4707078,-2.5e-7 -2.5957058,-0.5800778 -3.3749998,-1.74023441 -0.773439,-1.1660129 -1.160158,-2.8535112 -1.160156,-5.0625 -2e-6,-2.2148349 0.386717,-3.9023334 1.160156,-5.0625004 0.779294,-1.166002 1.904292,-1.74901 3.3749998,-1.749023" id="path3764"/>
        <path d="m -0.94042969,-2.2324219 1.85449219,0 0,2.2324219 -1.85449219,0 0,-2.2324219" id="path3766"/>
        <path d="m 6.3193359,-1.4941406 6.1962891,0 0,1.4941406 -8.3320313,0 0,-1.4941406 c 0.6738262,-0.6972635 1.5908175,-1.6318328 2.7509766,-2.803711 1.1660104,-1.1777289 1.8984315,-1.9365172 2.1972656,-2.2763671 0.5683526,-0.6386647 0.9638601,-1.1777267 1.1865231,-1.6171876 0.228508,-0.4453038 0.342766,-0.8818268 0.342774,-1.3095703 -8e-6,-0.6972554 -0.246101,-1.2656144 -0.7382814,-1.7050784 -0.4863347,-0.439441 -1.1220763,-0.659168 -1.9072266,-0.659179 -0.5566452,1.1e-5 -1.1455118,0.09669 -1.7666016,0.290039 -0.6152371,0.19337 -1.2744161,0.486339 -1.977539,0.878906 l 0,-1.792969 c 0.7148416,-0.287096 1.3828097,-0.503893 2.0039062,-0.65039 0.6210897,-0.146472 1.1894486,-0.219714 1.7050781,-0.219727 1.3593686,1.3e-5 2.4433523,0.339857 3.2519533,1.019531 0.808584,0.679699 1.212881,1.587902 1.212891,2.7246096 -1e-5,0.5390716 -0.102549,1.0517664 -0.307618,1.538086 -0.199228,0.4804763 -0.565438,1.0488351 -1.098632,1.7050781 -0.146493,0.1699281 -0.612313,0.6621151 -1.3974614,1.4765625 -0.7851623,0.8085978 -1.892583,1.9423858 -3.3222657,3.4013672" id="path3768"/>
      </g>
    </g>
    <path d="m 229.7,426 0,-13.5 m 0,-387.3 0,13.5" id="path3466" style="color:#000000;fill:none;stroke:currentColor;stroke-width:1;stroke-linecap:butt;stroke-linejoin:miter"/>
    <g transform="translate(229.7,459.7)" id="g3468" style="font-size:18px;text-anchor:middle;color:#000000;fill:#000000;stroke:none;font-family:Bitstream Vera Sans">
      <g id="text3470">
        <path d="m -8.6044922,-11.953125 c -0.9140673,1.2e-5 -1.6025428,0.451183 -2.0654298,1.353516 -0.457034,0.8964937 -0.68555,2.2470783 -0.685547,4.0517574 -3e-6,1.7988329 0.228513,3.1494175 0.685547,4.0517578 0.462887,0.896486 1.1513625,1.3447278 2.0654298,1.3447266 0.9199152,1.2e-6 1.6083911,-0.4482406 2.0654297,-1.3447266 0.4628824,-0.9023403 0.6943275,-2.2529249 0.6943359,-4.0517578 -8.4e-6,-1.8046791 -0.2314535,-3.1552637 -0.6943359,-4.0517574 -0.4570386,-0.902333 -1.1455145,-1.353504 -2.0654297,-1.353516 m 0,-1.40625 c 1.4706959,1.3e-5 2.5927651,0.583021 3.366211,1.749023 0.779287,1.160167 1.168935,2.8476655 1.1689453,5.0625004 -1.03e-5,2.2089888 -0.3896583,3.8964871 -1.1689453,5.0625 -0.7734459,1.16015661 -1.8955151,1.74023416 -3.366211,1.74023441 -1.4707078,-2.5e-7 -2.5957058,-0.5800778 -3.3749998,-1.74023441 -0.773439,-1.1660129 -1.160158,-2.8535112 -1.160156,-5.0625 -2e-6,-2.2148349 0.386717,-3.9023334 1.160156,-5.0625004 0.779294,-1.166002 1.904292,-1.74901 3.3749998,-1.749023" id="path3757"/>
        <path d="m -0.94042969,-2.2324219 1.85449219,0 0,2.2324219 -1.85449219,0 0,-2.2324219" id="path3759"/>
        <path d="m 9.6679688,-11.575195 -4.4824219,7.0048825 4.4824219,0 0,-7.0048825 m -0.4658204,-1.546875 2.2324216,0 0,8.5517575 1.872071,0 0,1.4765625 -1.872071,0 0,3.09375 -1.7666012,0 0,-3.09375 -5.9238282,0 0,-1.7138672 5.4580078,-8.3144528" id="path3761"/>
      </g>
    </g>
    <path d="m 312.6,426 0,-13.5 m 0,-387.3 0,13.5" id="path3472" style="color:#000000;fill:none;stroke:currentColor;stroke-width:1;stroke-linecap:butt;stroke-linejoin:miter"/>
    <g transform="translate(312.6,459.7)" id="g3474" style="font-size:18px;text-anchor:middle;color:#000000;fill:#000000;stroke:none;font-family:Bitstream Vera Sans">
      <g id="text3476">
        <path d="m -8.6044922,-11.953125 c -0.9140673,1.2e-5 -1.6025428,0.451183 -2.0654298,1.353516 -0.457034,0.8964937 -0.68555,2.2470783 -0.685547,4.0517574 -3e-6,1.7988329 0.228513,3.1494175 0.685547,4.0517578 0.462887,0.896486 1.1513625,1.3447278 2.0654298,1.3447266 0.9199152,1.2e-6 1.6083911,-0.4482406 2.0654297,-1.3447266 0.4628824,-0.9023403 0.6943275,-2.2529249 0.6943359,-4.0517578 -8.4e-6,-1.8046791 -0.2314535,-3.1552637 -0.6943359,-4.0517574 -0.4570386,-0.902333 -1.1455145,-1.353504 -2.0654297,-1.353516 m 0,-1.40625 c 1.4706959,1.3e-5 2.5927651,0.583021 3.366211,1.749023 0.779287,1.160167 1.168935,2.8476655 1.1689453,5.0625004 -1.03e-5,2.2089888 -0.3896583,3.8964871 -1.1689453,5.0625 -0.7734459,1.16015661 -1.8955151,1.74023416 -3.366211,1.74023441 -1.4707078,-2.5e-7 -2.5957058,-0.5800778 -3.3749998,-1.74023441 -0.773439,-1.1660129 -1.160158,-2.8535112 -1.160156,-5.0625 -2e-6,-2.2148349 0.386717,-3.9023334 1.160156,-5.0625004 0.779294,-1.166002 1.904292,-1.74901 3.3749998,-1.749023" id="path3750"/>
        <path d="m -0.94042969,-2.2324219 1.85449219,0 0,2.2324219 -1.85449219,0 0,-2.2324219" id="path3752"/>
        <path d="m 8.8066406,-7.2685547 c -0.7968801,7.3e-6 -1.429692,0.2724679 -1.8984375,0.8173828 -0.4628942,0.5449278 -0.6943393,1.2919974 -0.6943359,2.241211 -3.4e-6,0.9433626 0.2314417,1.6904322 0.6943359,2.2412109 0.4687455,0.5449233 1.1015574,0.817384 1.8984375,0.8173828 0.7968683,1.2e-6 1.4267504,-0.2724595 1.8896484,-0.8173828 0.468742,-0.5507787 0.703117,-1.2978483 0.703125,-2.2412109 -8e-6,-0.9492136 -0.234383,-1.6962832 -0.703125,-2.241211 -0.462898,-0.5449149 -1.0927801,-0.8173755 -1.8896484,-0.8173828 m 3.5244144,-5.5634763 0,1.617187 c -0.445322,-0.210926 -0.896493,-0.372058 -1.353516,-0.483398 -0.451179,-0.111317 -0.899421,-0.166981 -1.3447265,-0.166992 -1.1718806,1.1e-5 -2.0683641,0.395519 -2.6894531,1.186523 -0.6152379,0.7910256 -0.9668,1.9863369 -1.0546875,3.5859376 0.3456997,-0.5097581 0.779293,-0.8994061 1.3007812,-1.1689454 0.5214796,-0.275382 1.0956977,-0.4130772 1.7226563,-0.4130859 1.3183516,8.7e-6 2.3583896,0.4013755 3.1201176,1.2041016 0.767568,0.7968816 1.151356,1.8837946 1.151367,3.2607422 -1.1e-5,1.3476591 -0.398448,2.4287127 -1.195313,3.24316402 -0.796883,0.81445328 -1.857429,1.22167944 -3.1816404,1.22167969 -1.5175825,-2.5e-7 -2.6777376,-0.5800778 -3.4804687,-1.74023441 -0.8027361,-1.1660129 -1.2041028,-2.8535112 -1.2041016,-5.0625 -1.2e-6,-2.0742101 0.4921858,-3.7265524 1.4765625,-4.9570314 0.9843713,-1.236315 2.305659,-1.854479 3.9638672,-1.854492 0.445305,1.3e-5 0.893547,0.04396 1.344727,0.131836 0.457022,0.0879 0.931631,0.21974 1.423828,0.395508" id="path3754"/>
      </g>
    </g>
    <path d="m 395.5,426 0,-13.5 m 0,-387.3 0,13.5" id="path3478" style="color:#000000;fill:none;stroke:currentColor;stroke-width:1;stroke-linecap:butt;stroke-linejoin:miter"/>
    <g transform="translate(395.5,459.7)" id="g3480" style="font-size:18px;text-anchor:middle;color:#000000;fill:#000000;stroke:none;font-family:Bitstream Vera Sans">
      <g id="text3482">
        <path d="m -8.6044922,-11.953125 c -0.9140673,1.2e-5 -1.6025428,0.451183 -2.0654298,1.353516 -0.457034,0.8964937 -0.68555,2.2470783 -0.685547,4.0517574 -3e-6,1.7988329 0.228513,3.1494175 0.685547,4.0517578 0.462887,0.896486 1.1513625,1.3447278 2.0654298,1.3447266 0.9199152,1.2e-6 1.6083911,-0.4482406 2.0654297,-1.3447266 0.4628824,-0.9023403 0.6943275,-2.2529249 0.6943359,-4.0517578 -8.4e-6,-1.8046791 -0.2314535,-3.1552637 -0.6943359,-4.0517574 -0.4570386,-0.902333 -1.1455145,-1.353504 -2.0654297,-1.353516 m 0,-1.40625 c 1.4706959,1.3e-5 2.5927651,0.583021 3.366211,1.749023 0.779287,1.160167 1.168935,2.8476655 1.1689453,5.0625004 -1.03e-5,2.2089888 -0.3896583,3.8964871 -1.1689453,5.0625 -0.7734459,1.16015661 -1.8955151,1.74023416 -3.366211,1.74023441 -1.4707078,-2.5e-7 -2.5957058,-0.5800778 -3.3749998,-1.74023441 -0.773439,-1.1660129 -1.160158,-2.8535112 -1.160156,-5.0625 -2e-6,-2.2148349 0.386717,-3.9023334 1.160156,-5.0625004 0.779294,-1.166002 1.904292,-1.74901 3.3749998,-1.749023" id="path3743"/>
        <path d="m -0.94042969,-2.2324219 1.85449219,0 0,2.2324219 -1.85449219,0 0,-2.2324219" id="path3745"/>
        <path d="m 8.5869141,-6.2314453 c -0.8437549,6.2e-6 -1.5087933,0.2255919 -1.9951172,0.6767578 -0.480472,0.451177 -0.7207062,1.0722701 -0.7207032,1.8632812 -3e-6,0.7910186 0.2402312,1.4121117 0.7207032,1.8632813 0.4863239,0.4511733 1.1513623,0.676759 1.9951172,0.6767578 0.8437434,1.2e-6 1.5087819,-0.2255845 1.9951169,-0.6767578 0.48632,-0.457029 0.729484,-1.0781221 0.729492,-1.8632813 -8e-6,-0.7910111 -0.243172,-1.4121042 -0.729492,-1.8632812 C 10.101555,-6.0058534 9.4365169,-6.2314391 8.5869141,-6.2314453 M 6.8115234,-6.9873047 C 6.0498015,-7.1747975 5.4550755,-7.5292893 5.0273437,-8.0507813 4.605467,-8.5722571 4.3945297,-9.2079986 4.3945312,-9.9580078 c -1.5e-6,-1.0488172 0.3720685,-1.8779182 1.116211,-2.4873052 0.7499966,-0.609361 1.7753862,-0.914049 3.0761719,-0.914062 1.3066336,1.3e-5 2.3320229,0.304701 3.0761719,0.914062 0.744131,0.609387 1.116201,1.438488 1.116211,2.4873052 -10e-6,0.7500092 -0.213877,1.3857507 -0.641602,1.9072265 -0.421884,0.521492 -1.01075,0.8759838 -1.766601,1.0634766 0.85546,0.1992256 1.520499,0.5888736 1.995117,1.1689453 0.480459,0.5800834 0.720693,1.2890671 0.720703,2.1269531 -10e-6,1.2714868 -0.389658,2.2470718 -1.168945,2.92675786 -0.773446,0.67968759 -1.883796,1.019531 -3.3310549,1.01953125 C 7.1396442,0.25488256 6.026364,-0.08496085 5.2470703,-0.76464844 4.4736312,-1.4443345 4.0869128,-2.4199195 4.0869141,-3.6914063 4.0869128,-4.5292923 4.327147,-5.238276 4.8076172,-5.8183594 5.2880835,-6.3984311 5.9560516,-6.7880791 6.8115234,-6.9873047 M 6.1611328,-9.7910156 c -3.3e-6,0.6796966 0.210934,1.2099695 0.6328125,1.5908203 0.42773,0.3808672 1.0253857,0.5712967 1.7929688,0.5712891 0.7617122,7.6e-6 1.3564382,-0.1904219 1.7841799,-0.5712891 0.433586,-0.3808508 0.650382,-0.9111237 0.65039,-1.5908203 -8e-6,-0.6796774 -0.216804,-1.2099504 -0.65039,-1.5908204 -0.4277417,-0.380848 -1.0224677,-0.571277 -1.7841799,-0.571289 -0.7675831,1.2e-5 -1.3652388,0.190441 -1.7929688,0.571289 -0.4218785,0.38087 -0.6328158,0.911143 -0.6328125,1.5908204" id="path3747"/>
      </g>
    </g>
    <path d="m 478.4,426 0,-13.5 m 0,-387.3 0,13.5" id="path3484" style="color:#000000;fill:none;stroke:currentColor;stroke-width:1;stroke-linecap:butt;stroke-linejoin:miter"/>
    <g transform="translate(478.4,459.7)" id="g3486" style="font-size:18px;text-anchor:middle;color:#000000;fill:#000000;stroke:none;font-family:Bitstream Vera Sans">
      <g id="text3488">
        <path d="m -3.4980469,-1.4941406 2.90039065,0 0,-10.0107424 -3.15527345,0.632813 0,-1.617188 3.13769533,-0.632812 1.77539057,0 0,11.6279294 2.9003907,0 0,1.4941406 -7.5585938,0 0,-1.4941406" id="path3740"/>
      </g>
    </g>
    <path d="m 561.3,426 0,-13.5 m 0,-387.3 0,13.5" id="path3490" style="color:#000000;fill:none;stroke:currentColor;stroke-width:1;stroke-linecap:butt;stroke-linejoin:miter"/>
    <g transform="translate(561.3,459.7)" id="g3492" style="font-size:18px;text-anchor:middle;color:#000000;fill:#000000;stroke:none;font-family:Bitstream Vera Sans">
      <g id="text3494">
        <path d="m -12.09375,-1.4941406 2.9003906,0 0,-10.0107424 -3.1552736,0.632813 0,-1.617188 3.1376955,-0.632812 1.7753906,0 0,11.6279294 2.9003907,0 0,1.4941406 -7.5585938,0 0,-1.4941406" id="path3733"/>
        <path d="m -0.94042969,-2.2324219 1.85449219,0 0,2.2324219 -1.85449219,0 0,-2.2324219" id="path3735"/>
        <path d="m 6.3193359,-1.4941406 6.1962891,0 0,1.4941406 -8.3320313,0 0,-1.4941406 c 0.6738262,-0.6972635 1.5908175,-1.6318328 2.7509766,-2.803711 1.1660104,-1.1777289 1.8984315,-1.9365172 2.1972656,-2.2763671 0.5683526,-0.6386647 0.9638601,-1.1777267 1.1865231,-1.6171876 0.228508,-0.4453038 0.342766,-0.8818268 0.342774,-1.3095703 -8e-6,-0.6972554 -0.246101,-1.2656144 -0.7382814,-1.7050784 -0.4863347,-0.439441 -1.1220763,-0.659168 -1.9072266,-0.659179 -0.5566452,1.1e-5 -1.1455118,0.09669 -1.7666016,0.290039 -0.6152371,0.19337 -1.2744161,0.486339 -1.977539,0.878906 l 0,-1.792969 c 0.7148416,-0.287096 1.3828097,-0.503893 2.0039062,-0.65039 0.6210897,-0.146472 1.1894486,-0.219714 1.7050781,-0.219727 1.3593686,1.3e-5 2.4433523,0.339857 3.2519533,1.019531 0.808584,0.679699 1.212881,1.587902 1.212891,2.7246096 -1e-5,0.5390716 -0.102549,1.0517664 -0.307618,1.538086 -0.199228,0.4804763 -0.565438,1.0488351 -1.098632,1.7050781 -0.146493,0.1699281 -0.612313,0.6621151 -1.3974614,1.4765625 -0.7851623,0.8085978 -1.892583,1.9423858 -3.3222657,3.4013672" id="path3737"/>
      </g>
    </g>
    <path d="m 63.9,225.6 497.4,0 M 63.9,426 63.9,25.2" id="path3498" style="color:#808080;fill:none;stroke:currentColor;stroke-width:1;stroke-linecap:butt;stroke-linejoin:miter"/>
    <path d="m 63.9,25.2 0,400.8 497.4,0 0,-400.8 -497.4,0 z" id="path3502" style="color:#000000;fill:none;stroke:currentColor;stroke-width:1;stroke-linecap:butt;stroke-linejoin:miter"/>
    <g transform="translate(146.8,97.3)" id="g3504" style="font-size:22px;text-anchor:start;color:#000000;fill:#bc1e47;stroke:none;font-family:Bitstream Vera Sans">
      <g id="text3506">
        <path d="m 9.9902344,-6.1552734 c -10e-6,-1.4322841 -0.2972102,-2.542309 -0.8916016,-3.3300782 -0.5872481,-0.7877504 -1.4143957,-1.1816304 -2.4814453,-1.1816404 -1.0599014,10e-6 -1.887049,0.39389 -2.4814453,1.1816404 -0.5872431,0.7877692 -0.8808626,1.8977941 -0.8808594,3.3300782 -3.2e-6,1.4251349 0.2936163,2.5315791 0.8808594,3.3193359 0.5943963,0.7877625 1.4215439,1.1816423 2.4814453,1.1816406 1.0670496,1.7e-6 1.8941972,-0.3938781 2.4814453,-1.1816406 0.5943914,-0.7877568 0.8915916,-1.894201 0.8916016,-3.3193359 m 1.9765626,4.6621093 C 11.966785,0.55501247 11.512033,2.0768208 10.602539,3.0722656 9.6930242,4.0748657 8.3001219,4.5761673 6.4238281,4.5761719 5.7291609,4.5761673 5.0738882,4.5224564 4.4580078,4.4150391 3.8421186,4.3147743 3.2441374,4.1572224 2.6640625,3.9423828 l 0,-1.9228515 c 0.5800749,0.3151018 1.152991,0.5478489 1.71875,0.6982421 0.5657503,0.1503878 1.1422471,0.225583 1.7294922,0.225586 1.2962165,-3e-6 2.2665932,-0.3401719 2.9111328,-1.0205078 0.6445216,-0.6731784 0.9667869,-1.69368516 0.9667969,-3.0615235 l 0,-0.977539 C 9.5820217,-1.4072252 9.0592357,-0.87727777 8.421875,-0.52636719 7.7844974,-0.17545555 7.0218029,0 6.1337891,0 4.658524,0 3.4697231,-0.56217392 2.5673828,-1.6865234 1.6650374,-2.8108696 1.213866,-4.3004514 1.2138672,-6.1552734 c -1.2e-6,-1.8619712 0.4511702,-3.3551338 1.3535156,-4.4794926 0.9023403,-1.124337 2.0911412,-1.686511 3.5664063,-1.686523 0.8880138,1.2e-5 1.6507083,0.175468 2.2880859,0.526367 0.6373607,0.350923 1.1601467,0.88087 1.5683594,1.589844 l 0,-1.826172 1.9765626,0 0,10.5380859" id="path3706"/>
        <path d="m 16.038086,-16.714844 1.976562,0 0,16.714844 -1.976562,0 0,-16.714844" id="path3708"/>
        <path d="m 26.801758,-10.645508 c -1.059902,1.1e-5 -1.897791,0.415375 -2.513672,1.2460939 -0.615889,0.8235763 -0.923831,1.9550856 -0.923828,3.3945313 -3e-6,1.4394577 0.304358,2.5745477 0.913086,3.4052734 0.61588,0.8235695 1.457351,1.235353 2.524414,1.2353516 1.052726,1.4e-6 1.887035,-0.4153628 2.502929,-1.2460938 0.615876,-0.8307257 0.923818,-1.962235 0.923829,-3.3945312 -1.1e-5,-1.4251228 -0.307953,-2.5530514 -0.923829,-3.3837891 -0.615894,-0.8378801 -1.450203,-1.2568251 -2.502929,-1.2568361 m 0,-1.675781 c 1.718741,1.2e-5 3.068675,0.558605 4.049804,1.675781 0.981109,1.1171972 1.471668,2.6640707 1.47168,4.6406252 -1.2e-5,1.9694051 -0.490571,3.5162785 -1.47168,4.640625 -0.981129,1.11718773 -2.331063,1.67578093 -4.049804,1.67578124 -1.725917,-3.1e-7 -3.079431,-0.55859351 -4.060547,-1.67578124 -0.97396,-1.1243465 -1.460939,-2.6712199 -1.460938,-4.640625 -1e-6,-1.9765545 0.486978,-3.523428 1.460938,-4.6406252 0.981116,-1.117176 2.33463,-1.675769 4.060547,-1.675781" id="path3710"/>
        <path d="m 44.225586,-6.0048828 c -1.1e-5,-1.4537686 -0.300792,-2.5924393 -0.902344,-3.4160156 -0.59441,-0.8307186 -1.414396,-1.2460836 -2.459961,-1.2460936 -1.045579,10e-6 -1.869146,0.415375 -2.470703,1.2460936 -0.594405,0.8235763 -0.891605,1.962247 -0.891601,3.4160156 -4e-6,1.4537806 0.297196,2.596032 0.891601,3.4267578 0.601557,0.8235695 1.425124,1.2353529 2.470703,1.2353516 1.045565,1.3e-6 1.865551,-0.4117821 2.459961,-1.2353516 0.601552,-0.8307258 0.902333,-1.9729772 0.902344,-3.4267578 m -6.724609,-4.2001952 c 0.41536,-0.716135 0.938146,-1.246082 1.568359,-1.589844 0.637364,-0.350899 1.396477,-0.526355 2.277344,-0.526367 1.460928,1.2e-5 2.646148,0.58009 3.555664,1.740234 0.916654,1.160166 1.374987,2.6855551 1.375,4.5761722 -1.3e-5,1.8906291 -0.458346,3.4160182 -1.375,4.5761719 -0.909516,1.16015648 -2.094736,1.74023403 -3.555664,1.74023434 -0.880867,-3.1e-7 -1.63998,-0.17187514 -2.277344,-0.515625 -0.630213,-0.35091091 -1.152999,-0.88443904 -1.568359,-1.60058594 l 0,1.8046875 -1.987305,0 0,-16.714844 1.987305,0 0,6.509766" id="path3712"/>
        <path d="m 55.021484,-6.0478516 c -1.597011,6.1e-6 -2.703455,0.1826231 -3.319336,0.5478516 -0.615889,0.3652395 -0.923831,0.9882858 -0.923828,1.8691406 -3e-6,0.7018259 0.229163,1.2604191 0.6875,1.6757813 0.465491,0.4082046 1.095698,0.612306 1.890625,0.6123047 1.095696,1.3e-6 1.972974,-0.3867171 2.631836,-1.1601563 0.666007,-0.7805957 0.999014,-1.8154254 0.999024,-3.1044922 l 0,-0.4404297 -1.965821,0 m 3.942383,-0.8164062 0,6.8642578 -1.976562,0 0,-1.8261719 c -0.451181,0.7304699 -1.013355,1.27115943 -1.686524,1.62207034 -0.673184,0.34374986 -1.496751,0.51562469 -2.470703,0.515625 -1.231775,-3.1e-7 -2.212894,-0.34374997 -2.943359,-1.03125 -0.723309,-0.69466004 -1.084963,-1.62206794 -1.084961,-2.78222654 -2e-6,-1.3535108 0.45117,-2.3740176 1.353515,-3.0615235 0.909502,-0.6874927 2.263016,-1.0312424 4.060547,-1.03125 l 2.771485,0 0,-0.1933593 c -10e-6,-0.9094965 -0.300791,-1.6113188 -0.902344,-2.1054688 -0.594409,-0.5012913 -1.432299,-0.7519423 -2.513672,-0.7519533 -0.687505,1.1e-5 -1.357101,0.08237 -2.008789,0.24707 -0.651696,0.164724 -1.278323,0.4117943 -1.879883,0.7412114 l 0,-1.8261714 c 0.723305,-0.279286 1.425127,-0.486968 2.105469,-0.623047 0.680333,-0.143217 1.342768,-0.214832 1.987305,-0.214844 1.740226,1.2e-5 3.040029,0.451184 3.899414,1.353516 0.859364,0.902353 1.289051,2.2701906 1.289062,4.1035152" id="path3714"/>
        <path d="m 63.045898,-16.714844 1.976563,0 0,16.714844 -1.976563,0 0,-16.714844" id="path3716"/>
        <path d="m 85.518555,-9.7216797 c 0.494128,-0.8880103 1.084948,-1.5432833 1.772461,-1.9658203 0.687486,-0.422514 1.49673,-0.633777 2.427734,-0.633789 1.253238,1.2e-5 2.220034,0.440442 2.900391,1.321289 0.680319,0.873708 1.020488,2.1198005 1.020507,3.7382813 l 0,7.2617187 -1.987304,0 0,-7.1972656 c -1.8e-5,-1.1529865 -0.204119,-2.0087799 -0.612305,-2.5673828 -0.40822,-0.5585836 -1.031266,-0.8378796 -1.869141,-0.8378906 -1.024102,1.1e-5 -1.833346,0.340179 -2.427734,1.0205077 -0.594413,0.6803475 -0.891613,1.6077554 -0.891602,2.7822266 l 0,6.7998047 -1.987304,0 0,-7.1972656 c -1e-5,-1.1601479 -0.204111,-2.0159413 -0.612305,-2.5673828 -0.408212,-0.5585836 -1.038419,-0.8378796 -1.890625,-0.8378906 -1.009772,1.1e-5 -1.811854,0.34376 -2.40625,1.0312499 -0.594405,0.6803475 -0.891605,1.6041747 -0.891601,2.7714844 l 0,6.7998047 -1.987305,0 0,-12.03125 1.987305,0 0,1.869141 c 0.451167,-0.73762 0.991857,-1.28189 1.62207,-1.632813 0.630202,-0.350899 1.378574,-0.526355 2.245117,-0.526367 0.873689,1.2e-5 1.614899,0.222017 2.223633,0.666016 0.615875,0.444021 1.070627,1.088552 1.364258,1.9335933" id="path3718"/>
        <path d="m 103.06055,-6.0478516 c -1.59701,6.1e-6 -2.70346,0.1826231 -3.319339,0.5478516 -0.615889,0.3652395 -0.923831,0.9882858 -0.923828,1.8691406 -3e-6,0.7018259 0.229163,1.2604191 0.6875,1.6757813 0.46549,0.4082046 1.095697,0.612306 1.890627,0.6123047 1.09569,1.3e-6 1.97297,-0.3867171 2.63183,-1.1601563 0.66601,-0.7805957 0.99902,-1.8154254 0.99903,-3.1044922 l 0,-0.4404297 -1.96582,0 m 3.94238,-0.8164062 0,6.8642578 -1.97656,0 0,-1.8261719 c -0.45118,0.7304699 -1.01336,1.27115943 -1.68653,1.62207034 -0.67318,0.34374986 -1.49675,0.51562469 -2.4707,0.515625 -1.231774,-3.1e-7 -2.212893,-0.34374997 -2.943359,-1.03125 -0.723309,-0.69466004 -1.084962,-1.62206794 -1.084961,-2.78222654 -10e-7,-1.3535108 0.45117,-2.3740176 1.353516,-3.0615235 0.909502,-0.6874927 2.263014,-1.0312424 4.060544,-1.03125 l 2.77149,0 0,-0.1933593 c -1e-5,-0.9094965 -0.30079,-1.6113188 -0.90235,-2.1054688 -0.59441,-0.5012913 -1.4323,-0.7519423 -2.51367,-0.7519533 -0.6875,1.1e-5 -1.3571,0.08237 -2.008788,0.24707 -0.651696,0.164724 -1.278323,0.4117943 -1.879882,0.7412114 l 0,-1.8261714 c 0.723304,-0.279286 1.425126,-0.486968 2.105468,-0.623047 0.680332,-0.143217 1.342772,-0.214832 1.987302,-0.214844 1.74023,1.2e-5 3.04003,0.451184 3.89942,1.353516 0.85936,0.902353 1.28905,2.2701906 1.28906,4.1035152" id="path3720"/>
        <path d="M 121.08594,-12.03125 116.73535,-6.1767578 121.31152,0 118.98047,0 115.47852,-4.7265625 111.97656,0 l -2.33105,0 4.67285,-6.2949219 -4.27539,-5.7363281 2.33105,0 3.19043,4.2861328 3.19043,-4.2861328 2.33106,0" id="path3722"/>
        <path d="m 124.10449,-12.03125 1.97656,0 0,12.03125 -1.97656,0 0,-12.03125 m 0,-4.683594 1.97656,0 0,2.50293 -1.97656,0 0,-2.50293" id="path3724"/>
        <path d="m 139.57324,-9.7216797 c 0.49413,-0.8880103 1.08495,-1.5432833 1.77246,-1.9658203 0.68749,-0.422514 1.49673,-0.633777 2.42774,-0.633789 1.25324,1.2e-5 2.22003,0.440442 2.90039,1.321289 0.68032,0.873708 1.02049,2.1198005 1.02051,3.7382813 l 0,7.2617187 -1.98731,0 0,-7.1972656 c -2e-5,-1.1529865 -0.20412,-2.0087799 -0.6123,-2.5673828 -0.40822,-0.5585836 -1.03127,-0.8378796 -1.86914,-0.8378906 -1.02411,1.1e-5 -1.83335,0.340179 -2.42774,1.0205077 -0.59441,0.6803475 -0.89161,1.6077554 -0.8916,2.7822266 l 0,6.7998047 -1.9873,0 0,-7.1972656 c -1e-5,-1.1601479 -0.20412,-2.0159413 -0.61231,-2.5673828 -0.40821,-0.5585836 -1.03842,-0.8378796 -1.89062,-0.8378906 -1.00978,1.1e-5 -1.81186,0.34376 -2.40625,1.0312499 -0.59441,0.6803475 -0.89161,1.6041747 -0.89161,2.7714844 l 0,6.7998047 -1.9873,0 0,-12.03125 1.9873,0 0,1.869141 c 0.45117,-0.73762 0.99186,-1.28189 1.62207,-1.632813 0.63021,-0.350899 1.37858,-0.526355 2.24512,-0.526367 0.87369,1.2e-5 1.6149,0.222017 2.22363,0.666016 0.61588,0.444021 1.07063,1.088552 1.36426,1.9335933" id="path3726"/>
        <path d="m 151.44336,-4.7480469 0,-7.2832031 1.97656,0 0,7.2080078 c 0,1.1386756 0.222,1.994469 0.66602,2.5673828 0.444,0.5657569 1.11002,0.8486342 1.99804,0.8486328 1.06705,1.4e-6 1.90852,-0.3401675 2.52442,-1.0205078 0.62304,-0.6803354 0.93456,-1.6077433 0.93457,-2.7822265 l 0,-6.8212891 1.97656,0 0,12.03125 -1.97656,0 0,-1.8476562 c -0.47983,0.7304698 -1.03842,1.27474011 -1.67578,1.63281245 -0.63022,0.35091132 -1.36427,0.52636688 -2.20215,0.52636719 -1.38217,-3.1e-7 -2.43132,-0.42968738 -3.14746,-1.2890625 -0.71615,-0.85937314 -1.07422,-2.11620784 -1.07422,-3.77050784 m 4.97363,-7.5732421 0,0" id="path3728"/>
        <path d="m 174.97949,-9.7216797 c 0.49413,-0.8880103 1.08495,-1.5432833 1.77246,-1.9658203 0.68749,-0.422514 1.49673,-0.633777 2.42774,-0.633789 1.25324,1.2e-5 2.22003,0.440442 2.90039,1.321289 0.68032,0.873708 1.02049,2.1198005 1.02051,3.7382813 l 0,7.2617187 -1.98731,0 0,-7.1972656 c -2e-5,-1.1529865 -0.20412,-2.0087799 -0.6123,-2.5673828 -0.40822,-0.5585836 -1.03127,-0.8378796 -1.86914,-0.8378906 -1.02411,1.1e-5 -1.83335,0.340179 -2.42774,1.0205077 -0.59441,0.6803475 -0.89161,1.6077554 -0.8916,2.7822266 l 0,6.7998047 -1.9873,0 0,-7.1972656 c -1e-5,-1.1601479 -0.20412,-2.0159413 -0.61231,-2.5673828 -0.40821,-0.5585836 -1.03842,-0.8378796 -1.89062,-0.8378906 -1.00978,1.1e-5 -1.81186,0.34376 -2.40625,1.0312499 -0.59441,0.6803475 -0.89161,1.6041747 -0.89161,2.7714844 l 0,6.7998047 -1.9873,0 0,-12.03125 1.9873,0 0,1.869141 c 0.45117,-0.73762 0.99186,-1.28189 1.62207,-1.632813 0.63021,-0.350899 1.37858,-0.526355 2.24512,-0.526367 0.87369,1.2e-5 1.6149,0.222017 2.22363,0.666016 0.61588,0.444021 1.07063,1.088552 1.36426,1.9335933" id="path3730"/>
      </g>
    </g>
    <g transform="translate(228.4,376.3)" id="g3508" style="font-size:22px;text-anchor:start;color:#000000;fill:#bc1e47;stroke:none;font-family:Bitstream Vera Sans">
      <g id="text3510">
        <path d="m 9.9902344,-6.1552734 c -10e-6,-1.4322841 -0.2972102,-2.542309 -0.8916016,-3.3300782 -0.5872481,-0.7877504 -1.4143957,-1.1816304 -2.4814453,-1.1816404 -1.0599014,10e-6 -1.887049,0.39389 -2.4814453,1.1816404 -0.5872431,0.7877692 -0.8808626,1.8977941 -0.8808594,3.3300782 -3.2e-6,1.4251349 0.2936163,2.5315791 0.8808594,3.3193359 0.5943963,0.7877625 1.4215439,1.1816423 2.4814453,1.1816406 1.0670496,1.7e-6 1.8941972,-0.3938781 2.4814453,-1.1816406 0.5943914,-0.7877568 0.8915916,-1.894201 0.8916016,-3.3193359 m 1.9765626,4.6621093 C 11.966785,0.55501247 11.512033,2.0768208 10.602539,3.0722656 9.6930242,4.0748657 8.3001219,4.5761673 6.4238281,4.5761719 5.7291609,4.5761673 5.0738882,4.5224564 4.4580078,4.4150391 3.8421186,4.3147743 3.2441374,4.1572224 2.6640625,3.9423828 l 0,-1.9228515 c 0.5800749,0.3151018 1.152991,0.5478489 1.71875,0.6982421 0.5657503,0.1503878 1.1422471,0.225583 1.7294922,0.225586 1.2962165,-3e-6 2.2665932,-0.3401719 2.9111328,-1.0205078 0.6445216,-0.6731784 0.9667869,-1.69368516 0.9667969,-3.0615235 l 0,-0.977539 C 9.5820217,-1.4072252 9.0592357,-0.87727777 8.421875,-0.52636719 7.7844974,-0.17545555 7.0218029,0 6.1337891,0 4.658524,0 3.4697231,-0.56217392 2.5673828,-1.6865234 1.6650374,-2.8108696 1.213866,-4.3004514 1.2138672,-6.1552734 c -1.2e-6,-1.8619712 0.4511702,-3.3551338 1.3535156,-4.4794926 0.9023403,-1.124337 2.0911412,-1.686511 3.5664063,-1.686523 0.8880138,1.2e-5 1.6507083,0.175468 2.2880859,0.526367 0.6373607,0.350923 1.1601467,0.88087 1.5683594,1.589844 l 0,-1.826172 1.9765626,0 0,10.5380859" id="path3679"/>
        <path d="m 16.038086,-16.714844 1.976562,0 0,16.714844 -1.976562,0 0,-16.714844" id="path3681"/>
        <path d="m 26.801758,-10.645508 c -1.059902,1.1e-5 -1.897791,0.415375 -2.513672,1.2460939 -0.615889,0.8235763 -0.923831,1.9550856 -0.923828,3.3945313 -3e-6,1.4394577 0.304358,2.5745477 0.913086,3.4052734 0.61588,0.8235695 1.457351,1.235353 2.524414,1.2353516 1.052726,1.4e-6 1.887035,-0.4153628 2.502929,-1.2460938 0.615876,-0.8307257 0.923818,-1.962235 0.923829,-3.3945312 -1.1e-5,-1.4251228 -0.307953,-2.5530514 -0.923829,-3.3837891 -0.615894,-0.8378801 -1.450203,-1.2568251 -2.502929,-1.2568361 m 0,-1.675781 c 1.718741,1.2e-5 3.068675,0.558605 4.049804,1.675781 0.981109,1.1171972 1.471668,2.6640707 1.47168,4.6406252 -1.2e-5,1.9694051 -0.490571,3.5162785 -1.47168,4.640625 -0.981129,1.11718773 -2.331063,1.67578093 -4.049804,1.67578124 -1.725917,-3.1e-7 -3.079431,-0.55859351 -4.060547,-1.67578124 -0.97396,-1.1243465 -1.460939,-2.6712199 -1.460938,-4.640625 -1e-6,-1.9765545 0.486978,-3.523428 1.460938,-4.6406252 0.981116,-1.117176 2.33463,-1.675769 4.060547,-1.675781" id="path3683"/>
        <path d="m 44.225586,-6.0048828 c -1.1e-5,-1.4537686 -0.300792,-2.5924393 -0.902344,-3.4160156 -0.59441,-0.8307186 -1.414396,-1.2460836 -2.459961,-1.2460936 -1.045579,10e-6 -1.869146,0.415375 -2.470703,1.2460936 -0.594405,0.8235763 -0.891605,1.962247 -0.891601,3.4160156 -4e-6,1.4537806 0.297196,2.596032 0.891601,3.4267578 0.601557,0.8235695 1.425124,1.2353529 2.470703,1.2353516 1.045565,1.3e-6 1.865551,-0.4117821 2.459961,-1.2353516 0.601552,-0.8307258 0.902333,-1.9729772 0.902344,-3.4267578 m -6.724609,-4.2001952 c 0.41536,-0.716135 0.938146,-1.246082 1.568359,-1.589844 0.637364,-0.350899 1.396477,-0.526355 2.277344,-0.526367 1.460928,1.2e-5 2.646148,0.58009 3.555664,1.740234 0.916654,1.160166 1.374987,2.6855551 1.375,4.5761722 -1.3e-5,1.8906291 -0.458346,3.4160182 -1.375,4.5761719 -0.909516,1.16015648 -2.094736,1.74023403 -3.555664,1.74023434 -0.880867,-3.1e-7 -1.63998,-0.17187514 -2.277344,-0.515625 -0.630213,-0.35091091 -1.152999,-0.88443904 -1.568359,-1.60058594 l 0,1.8046875 -1.987305,0 0,-16.714844 1.987305,0 0,6.509766" id="path3685"/>
        <path d="m 55.021484,-6.0478516 c -1.597011,6.1e-6 -2.703455,0.1826231 -3.319336,0.5478516 -0.615889,0.3652395 -0.923831,0.9882858 -0.923828,1.8691406 -3e-6,0.7018259 0.229163,1.2604191 0.6875,1.6757813 0.465491,0.4082046 1.095698,0.612306 1.890625,0.6123047 1.095696,1.3e-6 1.972974,-0.3867171 2.631836,-1.1601563 0.666007,-0.7805957 0.999014,-1.8154254 0.999024,-3.1044922 l 0,-0.4404297 -1.965821,0 m 3.942383,-0.8164062 0,6.8642578 -1.976562,0 0,-1.8261719 c -0.451181,0.7304699 -1.013355,1.27115943 -1.686524,1.62207034 -0.673184,0.34374986 -1.496751,0.51562469 -2.470703,0.515625 -1.231775,-3.1e-7 -2.212894,-0.34374997 -2.943359,-1.03125 -0.723309,-0.69466004 -1.084963,-1.62206794 -1.084961,-2.78222654 -2e-6,-1.3535108 0.45117,-2.3740176 1.353515,-3.0615235 0.909502,-0.6874927 2.263016,-1.0312424 4.060547,-1.03125 l 2.771485,0 0,-0.1933593 c -10e-6,-0.9094965 -0.300791,-1.6113188 -0.902344,-2.1054688 -0.594409,-0.5012913 -1.432299,-0.7519423 -2.513672,-0.7519533 -0.687505,1.1e-5 -1.357101,0.08237 -2.008789,0.24707 -0.651696,0.164724 -1.278323,0.4117943 -1.879883,0.7412114 l 0,-1.8261714 c 0.723305,-0.279286 1.425127,-0.486968 2.105469,-0.623047 0.680333,-0.143217 1.342768,-0.214832 1.987305,-0.214844 1.740226,1.2e-5 3.040029,0.451184 3.899414,1.353516 0.859364,0.902353 1.289051,2.2701906 1.289062,4.1035152" id="path3687"/>
        <path d="m 63.045898,-16.714844 1.976563,0 0,16.714844 -1.976563,0 0,-16.714844" id="path3689"/>
        <path d="m 85.518555,-9.7216797 c 0.494128,-0.8880103 1.084948,-1.5432833 1.772461,-1.9658203 0.687486,-0.422514 1.49673,-0.633777 2.427734,-0.633789 1.253238,1.2e-5 2.220034,0.440442 2.900391,1.321289 0.680319,0.873708 1.020488,2.1198005 1.020507,3.7382813 l 0,7.2617187 -1.987304,0 0,-7.1972656 c -1.8e-5,-1.1529865 -0.204119,-2.0087799 -0.612305,-2.5673828 -0.40822,-0.5585836 -1.031266,-0.8378796 -1.869141,-0.8378906 -1.024102,1.1e-5 -1.833346,0.340179 -2.427734,1.0205077 -0.594413,0.6803475 -0.891613,1.6077554 -0.891602,2.7822266 l 0,6.7998047 -1.987304,0 0,-7.1972656 c -1e-5,-1.1601479 -0.204111,-2.0159413 -0.612305,-2.5673828 -0.408212,-0.5585836 -1.038419,-0.8378796 -1.890625,-0.8378906 -1.009772,1.1e-5 -1.811854,0.34376 -2.40625,1.0312499 -0.594405,0.6803475 -0.891605,1.6041747 -0.891601,2.7714844 l 0,6.7998047 -1.987305,0 0,-12.03125 1.987305,0 0,1.869141 c 0.451167,-0.73762 0.991857,-1.28189 1.62207,-1.632813 0.630202,-0.350899 1.378574,-0.526355 2.245117,-0.526367 0.873689,1.2e-5 1.614899,0.222017 2.223633,0.666016 0.615875,0.444021 1.070627,1.088552 1.364258,1.9335933" id="path3691"/>
        <path d="m 97.592773,-12.03125 1.976563,0 0,12.03125 -1.976563,0 0,-12.03125 m 0,-4.683594 1.976563,0 0,2.50293 -1.976563,0 0,-2.50293" id="path3693"/>
        <path d="m 113.69531,-7.2617187 0,7.2617187 -1.97656,0 0,-7.1972656 c -1e-5,-1.1386636 -0.22202,-1.9908763 -0.66602,-2.5566407 -0.44402,-0.5657447 -1.11003,-0.8486217 -1.99804,-0.8486327 -1.06707,1.1e-5 -1.90854,0.340179 -2.52442,1.0205077 -0.61589,0.6803475 -0.92383,1.6077554 -0.92382,2.7822266 l 0,6.7998047 -1.98731,0 0,-12.03125 1.98731,0 0,1.869141 c 0.47265,-0.723297 1.02766,-1.263986 1.66503,-1.622071 0.64453,-0.35806 1.38574,-0.537097 2.22364,-0.537109 1.38215,1.2e-5 2.42772,0.429699 3.13672,1.289062 0.70897,0.852224 1.06346,2.1090588 1.06347,3.7705083" id="path3695"/>
        <path d="m 117.65918,-12.03125 1.97656,0 0,12.03125 -1.97656,0 0,-12.03125 m 0,-4.683594 1.97656,0 0,2.50293 -1.97656,0 0,-2.50293" id="path3697"/>
        <path d="m 133.12793,-9.7216797 c 0.49413,-0.8880103 1.08495,-1.5432833 1.77246,-1.9658203 0.68749,-0.422514 1.49673,-0.633777 2.42773,-0.633789 1.25324,1.2e-5 2.22004,0.440442 2.9004,1.321289 0.68031,0.873708 1.02048,2.1198005 1.0205,3.7382813 l 0,7.2617187 -1.9873,0 0,-7.1972656 c -2e-5,-1.1529865 -0.20412,-2.0087799 -0.61231,-2.5673828 -0.40822,-0.5585836 -1.03126,-0.8378796 -1.86914,-0.8378906 -1.0241,1.1e-5 -1.83334,0.340179 -2.42773,1.0205077 -0.59441,0.6803475 -0.89161,1.6077554 -0.8916,2.7822266 l 0,6.7998047 -1.98731,0 0,-7.1972656 c -1e-5,-1.1601479 -0.20411,-2.0159413 -0.6123,-2.5673828 -0.40821,-0.5585836 -1.03842,-0.8378796 -1.89063,-0.8378906 -1.00977,1.1e-5 -1.81185,0.34376 -2.40625,1.0312499 -0.5944,0.6803475 -0.8916,1.6041747 -0.8916,2.7714844 l 0,6.7998047 -1.9873,0 0,-12.03125 1.9873,0 0,1.869141 c 0.45117,-0.73762 0.99186,-1.28189 1.62207,-1.632813 0.6302,-0.350899 1.37858,-0.526355 2.24512,-0.526367 0.87369,1.2e-5 1.6149,0.222017 2.22363,0.666016 0.61588,0.444021 1.07063,1.088552 1.36426,1.9335933" id="path3699"/>
        <path d="m 144.99805,-4.7480469 0,-7.2832031 1.97656,0 0,7.2080078 c 0,1.1386756 0.222,1.994469 0.66601,2.5673828 0.44401,0.5657569 1.11003,0.8486342 1.99805,0.8486328 1.06705,1.4e-6 1.90852,-0.3401675 2.52442,-1.0205078 0.62303,-0.6803354 0.93456,-1.6077433 0.93457,-2.7822265 l 0,-6.8212891 1.97656,0 0,12.03125 -1.97656,0 0,-1.8476562 c -0.47983,0.7304698 -1.03842,1.27474011 -1.67579,1.63281245 -0.63021,0.35091132 -1.36426,0.52636688 -2.20214,0.52636719 -1.38217,-3.1e-7 -2.43132,-0.42968738 -3.14746,-1.2890625 -0.71615,-0.85937314 -1.07422,-2.11620784 -1.07422,-3.77050784 m 4.97363,-7.5732421 0,0" id="path3701"/>
        <path d="m 168.53418,-9.7216797 c 0.49413,-0.8880103 1.08495,-1.5432833 1.77246,-1.9658203 0.68749,-0.422514 1.49673,-0.633777 2.42773,-0.633789 1.25324,1.2e-5 2.22004,0.440442 2.9004,1.321289 0.68031,0.873708 1.02048,2.1198005 1.0205,3.7382813 l 0,7.2617187 -1.9873,0 0,-7.1972656 c -2e-5,-1.1529865 -0.20412,-2.0087799 -0.61231,-2.5673828 -0.40822,-0.5585836 -1.03126,-0.8378796 -1.86914,-0.8378906 -1.0241,1.1e-5 -1.83334,0.340179 -2.42773,1.0205077 -0.59441,0.6803475 -0.89161,1.6077554 -0.8916,2.7822266 l 0,6.7998047 -1.98731,0 0,-7.1972656 c -1e-5,-1.1601479 -0.20411,-2.0159413 -0.6123,-2.5673828 -0.40821,-0.5585836 -1.03842,-0.8378796 -1.89063,-0.8378906 -1.00977,1.1e-5 -1.81185,0.34376 -2.40625,1.0312499 -0.5944,0.6803475 -0.8916,1.6041747 -0.8916,2.7714844 l 0,6.7998047 -1.9873,0 0,-12.03125 1.9873,0 0,1.869141 c 0.45117,-0.73762 0.99186,-1.28189 1.62207,-1.632813 0.6302,-0.350899 1.37858,-0.526355 2.24512,-0.526367 0.87369,1.2e-5 1.6149,0.222017 2.22363,0.666016 0.61588,0.444021 1.07063,1.088552 1.36426,1.9335933" id="path3703"/>
      </g>
    </g>
    <g transform="translate(291.7,139.2)" id="g3512" style="font-size:22px;text-anchor:end;color:#000000;fill:#0081cd;stroke:none;font-family:Bitstream Vera Sans">
      <g id="text3514">
        <path d="m -167.09473,-16.714844 1.97657,0 0,16.714844 -1.97657,0 0,-16.714844" id="path3654"/>
        <path d="m -156.33105,-10.645508 c -1.05991,1.1e-5 -1.8978,0.415375 -2.51368,1.2460939 -0.61589,0.8235763 -0.92383,1.9550856 -0.92382,3.3945313 -1e-5,1.4394577 0.30435,2.5745477 0.91308,3.4052734 0.61588,0.8235695 1.45735,1.235353 2.52442,1.2353516 1.05272,1.4e-6 1.88703,-0.4153628 2.50293,-1.2460938 0.61587,-0.8307257 0.92381,-1.962235 0.92382,-3.3945312 -1e-5,-1.4251228 -0.30795,-2.5530514 -0.92382,-3.3837891 -0.6159,-0.8378801 -1.45021,-1.2568251 -2.50293,-1.2568361 m 0,-1.675781 c 1.71874,1.2e-5 3.06867,0.558605 4.0498,1.675781 0.98111,1.1171972 1.47167,2.6640707 1.47168,4.6406252 -1e-5,1.9694051 -0.49057,3.5162785 -1.47168,4.640625 -0.98113,1.11718773 -2.33106,1.67578093 -4.0498,1.67578124 -1.72592,-3.1e-7 -3.07944,-0.55859351 -4.06055,-1.67578124 -0.97396,-1.1243465 -1.46094,-2.6712199 -1.46094,-4.640625 0,-1.9765545 0.48698,-3.523428 1.46094,-4.6406252 0.98111,-1.117176 2.33463,-1.675769 4.06055,-1.675781" id="path3656"/>
        <path d="m -138.88574,-11.569336 0,1.8476563 c -0.55861,-0.3079323 -1.12078,-0.5370993 -1.68653,-0.6875003 -0.5586,-0.157541 -1.12435,-0.236317 -1.69726,-0.236328 -1.28191,1.1e-5 -2.27735,0.408214 -2.98633,1.2246096 -0.70899,0.8092534 -1.06348,1.9479241 -1.06348,3.4160156 0,1.4681035 0.35449,2.6103549 1.06348,3.4267578 0.70898,0.8092466 1.70442,1.2138686 2.98633,1.2138672 0.57291,1.4e-6 1.13866,-0.075194 1.69726,-0.2255859 0.56575,-0.1575504 1.12792,-0.3902975 1.68653,-0.6982422 l 0,1.82617184 c -0.55144,0.2578127 -1.12436,0.45117188 -1.71875,0.58007812 -0.58725,0.12890601 -1.21388,0.19335907 -1.87988,0.19335938 -1.81186,-3.1e-7 -3.25131,-0.56933568 -4.31836,-1.70800784 -1.06706,-1.1386693 -1.60059,-2.6748006 -1.60059,-4.6083984 0,-1.9622316 0.53711,-3.5055244 1.61133,-4.6298832 1.08137,-1.124337 2.56021,-1.686511 4.43652,-1.686523 0.60872,1.2e-5 1.20312,0.06447 1.7832,0.193359 0.58007,0.121757 1.14225,0.307955 1.68653,0.558594" id="path3658"/>
        <path d="m -129.95898,-6.0478516 c -1.59702,6.1e-6 -2.70346,0.1826231 -3.31934,0.5478516 -0.61589,0.3652395 -0.92383,0.9882858 -0.92383,1.8691406 0,0.7018259 0.22916,1.2604191 0.6875,1.6757813 0.46549,0.4082046 1.0957,0.612306 1.89063,0.6123047 1.09569,1.3e-6 1.97297,-0.3867171 2.63183,-1.1601563 0.66601,-0.7805957 0.99902,-1.8154254 0.99903,-3.1044922 l 0,-0.4404297 -1.96582,0 m 3.94238,-0.8164062 0,6.8642578 -1.97656,0 0,-1.8261719 c -0.45118,0.7304699 -1.01336,1.27115943 -1.68653,1.62207034 -0.67318,0.34374986 -1.49675,0.51562469 -2.4707,0.515625 -1.23178,-3.1e-7 -2.21289,-0.34374997 -2.94336,-1.03125 -0.72331,-0.69466004 -1.08496,-1.62206794 -1.08496,-2.78222654 0,-1.3535108 0.45117,-2.3740176 1.35351,-3.0615235 0.90951,-0.6874927 2.26302,-1.0312424 4.06055,-1.03125 l 2.77149,0 0,-0.1933593 c -1e-5,-0.9094965 -0.30079,-1.6113188 -0.90235,-2.1054688 -0.59441,-0.5012913 -1.4323,-0.7519423 -2.51367,-0.7519533 -0.68751,1.1e-5 -1.3571,0.08237 -2.00879,0.24707 -0.65169,0.164724 -1.27832,0.4117943 -1.87988,0.7412114 l 0,-1.8261714 c 0.7233,-0.279286 1.42513,-0.486968 2.10547,-0.623047 0.68033,-0.143217 1.34276,-0.214832 1.9873,-0.214844 1.74023,1.2e-5 3.04003,0.451184 3.89942,1.353516 0.85936,0.902353 1.28905,2.2701906 1.28906,4.1035152" id="path3660"/>
        <path d="m -121.93457,-16.714844 1.97656,0 0,16.714844 -1.97656,0 0,-16.714844" id="path3662"/>
        <path d="m -99.461914,-9.7216797 c 0.494129,-0.8880103 1.084948,-1.5432833 1.772461,-1.9658203 0.687486,-0.422514 1.49673,-0.633777 2.427734,-0.633789 1.253239,1.2e-5 2.220034,0.440442 2.900391,1.321289 0.680319,0.873708 1.020488,2.1198005 1.020508,3.7382813 l 0,7.2617187 -1.987305,0 0,-7.1972656 c -1.8e-5,-1.1529865 -0.204119,-2.0087799 -0.612305,-2.5673828 -0.408219,-0.5585836 -1.031266,-0.8378796 -1.86914,-0.8378906 -1.024103,1.1e-5 -1.833347,0.340179 -2.427735,1.0205077 -0.594413,0.6803475 -0.891613,1.6077554 -0.891601,2.7822266 l 0,6.7998047 -1.987304,0 0,-7.1972656 c -1e-5,-1.1601479 -0.20411,-2.0159413 -0.61231,-2.5673828 -0.40821,-0.5585836 -1.03842,-0.8378796 -1.89062,-0.8378906 -1.00977,1.1e-5 -1.81186,0.34376 -2.40625,1.0312499 -0.59441,0.6803475 -0.89161,1.6041747 -0.8916,2.7714844 l 0,6.7998047 -1.98731,0 0,-12.03125 1.98731,0 0,1.869141 c 0.45117,-0.73762 0.99185,-1.28189 1.62207,-1.632813 0.6302,-0.350899 1.37857,-0.526355 2.24512,-0.526367 0.87368,1.2e-5 1.61489,0.222017 2.22363,0.666016 0.61587,0.444021 1.070625,1.088552 1.364256,1.9335933" id="path3664"/>
        <path d="m -81.919922,-6.0478516 c -1.597011,6.1e-6 -2.703455,0.1826231 -3.319336,0.5478516 -0.615889,0.3652395 -0.923831,0.9882858 -0.923828,1.8691406 -3e-6,0.7018259 0.229163,1.2604191 0.6875,1.6757813 0.46549,0.4082046 1.095698,0.612306 1.890625,0.6123047 1.095696,1.3e-6 1.972974,-0.3867171 2.631836,-1.1601563 0.666006,-0.7805957 0.999014,-1.8154254 0.999023,-3.1044922 l 0,-0.4404297 -1.96582,0 m 3.942383,-0.8164062 0,6.8642578 -1.976563,0 0,-1.8261719 c -0.45118,0.7304699 -1.013354,1.27115943 -1.686523,1.62207034 -0.673184,0.34374986 -1.496751,0.51562469 -2.470703,0.515625 -1.231775,-3.1e-7 -2.212894,-0.34374997 -2.943359,-1.03125 -0.723309,-0.69466004 -1.084963,-1.62206794 -1.084961,-2.78222654 -2e-6,-1.3535108 0.45117,-2.3740176 1.353515,-3.0615235 0.909502,-0.6874927 2.263016,-1.0312424 4.060547,-1.03125 l 2.771484,0 0,-0.1933593 c -9e-6,-0.9094965 -0.30079,-1.6113188 -0.902343,-2.1054688 -0.594409,-0.5012913 -1.432299,-0.7519423 -2.513672,-0.7519533 -0.687506,1.1e-5 -1.357101,0.08237 -2.008789,0.24707 -0.651696,0.164724 -1.278323,0.4117943 -1.879883,0.7412114 l 0,-1.8261714 c 0.723304,-0.279286 1.425127,-0.486968 2.105469,-0.623047 0.680333,-0.143217 1.342767,-0.214832 1.987304,-0.214844 1.740227,1.2e-5 3.04003,0.451184 3.899414,1.353516 0.859364,0.902353 1.289051,2.2701906 1.289063,4.1035152" id="path3666"/>
        <path d="M -63.894531,-12.03125 -68.245117,-6.1767578 -63.668945,0 -66,0 -69.501953,-4.7265625 -73.003906,0 l -2.331055,0 4.672852,-6.2949219 -4.275391,-5.7363281 2.331055,0 3.190429,4.2861328 3.19043,-4.2861328 2.331055,0" id="path3668"/>
        <path d="m -60.875977,-12.03125 1.976563,0 0,12.03125 -1.976563,0 0,-12.03125 m 0,-4.683594 1.976563,0 0,2.50293 -1.976563,0 0,-2.50293" id="path3670"/>
        <path d="m -45.407227,-9.7216797 c 0.494129,-0.8880103 1.084949,-1.5432833 1.772461,-1.9658203 0.687486,-0.422514 1.49673,-0.633777 2.427735,-0.633789 1.253238,1.2e-5 2.220034,0.440442 2.90039,1.321289 0.68032,0.873708 1.020489,2.1198005 1.020508,3.7382813 l 0,7.2617187 -1.987304,0 0,-7.1972656 c -1.8e-5,-1.1529865 -0.204119,-2.0087799 -0.612305,-2.5673828 -0.40822,-0.5585836 -1.031266,-0.8378796 -1.869141,-0.8378906 -1.024102,1.1e-5 -1.833346,0.340179 -2.427734,1.0205077 -0.594413,0.6803475 -0.891614,1.6077554 -0.891602,2.7822266 l 0,6.7998047 -1.987304,0 0,-7.1972656 c -10e-6,-1.1601479 -0.204112,-2.0159413 -0.612305,-2.5673828 -0.408212,-0.5585836 -1.03842,-0.8378796 -1.890625,-0.8378906 -1.009772,1.1e-5 -1.811855,0.34376 -2.40625,1.0312499 -0.594405,0.6803475 -0.891606,1.6041747 -0.891602,2.7714844 l 0,6.7998047 -1.987304,0 0,-12.03125 1.987304,0 0,1.869141 c 0.451168,-0.73762 0.991857,-1.28189 1.622071,-1.632813 0.630202,-0.350899 1.378573,-0.526355 2.245117,-0.526367 0.873689,1.2e-5 1.614899,0.222017 2.223633,0.666016 0.615874,0.444021 1.070626,1.088552 1.364257,1.9335933" id="path3672"/>
        <path d="m -33.537109,-4.7480469 0,-7.2832031 1.976562,0 0,7.2080078 c -4e-6,1.1386756 0.222001,1.994469 0.666016,2.5673828 0.444005,0.5657569 1.11002,0.8486342 1.998047,0.8486328 1.067049,1.4e-6 1.90852,-0.3401675 2.524414,-1.0205078 0.623037,-0.6803354 0.93456,-1.6077433 0.93457,-2.7822265 l 0,-6.8212891 1.976563,0 0,12.03125 -1.976563,0 0,-1.8476562 c -0.479827,0.7304698 -1.03842,1.27474011 -1.675781,1.63281245 -0.630216,0.35091132 -1.364265,0.52636688 -2.202149,0.52636719 -1.382166,-3.1e-7 -2.431318,-0.42968738 -3.147461,-1.2890625 -0.716148,-0.85937314 -1.07422,-2.11620784 -1.074218,-3.77050784 m 4.973632,-7.5732421 0,0" id="path3674"/>
        <path d="m -10.000977,-9.7216797 c 0.4941291,-0.8880103 1.0849488,-1.5432833 1.7724614,-1.9658203 0.6874861,-0.422514 1.4967301,-0.633777 2.4277344,-0.633789 1.2532383,1.2e-5 2.2200342,0.440442 2.9003906,1.321289 0.6803193,0.873708 1.0204882,2.1198005 1.0205078,3.7382813 l 0,7.2617187 -1.9873047,0 0,-7.1972656 c -1.76e-5,-1.1529865 -0.2041189,-2.0087799 -0.6123047,-2.5673828 -0.4082197,-0.5585836 -1.0312659,-0.8378796 -1.8691406,-0.8378906 -1.0241026,1.1e-5 -1.8333466,0.340179 -2.4277344,1.0205077 -0.5944131,0.6803475 -0.8916133,1.6077554 -0.8916016,2.7822266 l 0,6.7998047 -1.9873042,0 0,-7.1972656 c -1e-5,-1.1601479 -0.204112,-2.0159413 -0.612305,-2.5673828 -0.408212,-0.5585836 -1.03842,-0.8378796 -1.890625,-0.8378906 -1.009772,1.1e-5 -1.811855,0.34376 -2.40625,1.0312499 -0.594405,0.6803475 -0.891606,1.6041747 -0.891602,2.7714844 l 0,6.7998047 -1.987304,0 0,-12.03125 1.987304,0 0,1.869141 c 0.451168,-0.73762 0.991857,-1.28189 1.622071,-1.632813 0.630202,-0.350899 1.378573,-0.526355 2.245117,-0.526367 0.873689,1.2e-5 1.614899,0.222017 2.223633,0.666016 0.615874,0.444021 1.070626,1.088552 1.364257,1.9335933" id="path3676"/>
      </g>
    </g>
    <g transform="translate(432.2,309.6)" id="g3516" style="font-size:22px;text-anchor:end;color:#000000;fill:#0081cd;stroke:none;font-family:Bitstream Vera Sans">
      <g id="text3518">
        <path d="m -160.64941,-16.714844 1.97656,0 0,16.714844 -1.97656,0 0,-16.714844" id="path3629"/>
        <path d="m -149.88574,-10.645508 c -1.0599,1.1e-5 -1.89779,0.415375 -2.51367,1.2460939 -0.61589,0.8235763 -0.92384,1.9550856 -0.92383,3.3945313 -1e-5,1.4394577 0.30436,2.5745477 0.91308,3.4052734 0.61588,0.8235695 1.45735,1.235353 2.52442,1.2353516 1.05272,1.4e-6 1.88703,-0.4153628 2.50293,-1.2460938 0.61587,-0.8307257 0.92382,-1.962235 0.92383,-3.3945312 -1e-5,-1.4251228 -0.30796,-2.5530514 -0.92383,-3.3837891 -0.6159,-0.8378801 -1.45021,-1.2568251 -2.50293,-1.2568361 m 0,-1.675781 c 1.71874,1.2e-5 3.06867,0.558605 4.0498,1.675781 0.98111,1.1171972 1.47167,2.6640707 1.47168,4.6406252 -1e-5,1.9694051 -0.49057,3.5162785 -1.47168,4.640625 -0.98113,1.11718773 -2.33106,1.67578093 -4.0498,1.67578124 -1.72592,-3.1e-7 -3.07943,-0.55859351 -4.06055,-1.67578124 -0.97396,-1.1243465 -1.46094,-2.6712199 -1.46094,-4.640625 0,-1.9765545 0.48698,-3.523428 1.46094,-4.6406252 0.98112,-1.117176 2.33463,-1.675769 4.06055,-1.675781" id="path3631"/>
        <path d="m -132.44043,-11.569336 0,1.8476563 c -0.5586,-0.3079323 -1.12078,-0.5370993 -1.68652,-0.6875003 -0.55861,-0.157541 -1.12436,-0.236317 -1.69727,-0.236328 -1.28191,1.1e-5 -2.27735,0.408214 -2.98633,1.2246096 -0.70898,0.8092534 -1.06348,1.9479241 -1.06347,3.4160156 -1e-5,1.4681035 0.35449,2.6103549 1.06347,3.4267578 0.70898,0.8092466 1.70442,1.2138686 2.98633,1.2138672 0.57291,1.4e-6 1.13866,-0.075194 1.69727,-0.2255859 0.56574,-0.1575504 1.12792,-0.3902975 1.68652,-0.6982422 l 0,1.82617184 c -0.55144,0.2578127 -1.12436,0.45117188 -1.71875,0.58007812 -0.58725,0.12890601 -1.21387,0.19335907 -1.87988,0.19335938 -1.81186,-3.1e-7 -3.25131,-0.56933568 -4.31836,-1.70800784 -1.06706,-1.1386693 -1.60059,-2.6748006 -1.60059,-4.6083984 0,-1.9622316 0.53711,-3.5055244 1.61133,-4.6298832 1.08138,-1.124337 2.56022,-1.686511 4.43652,-1.686523 0.60872,1.2e-5 1.20312,0.06447 1.78321,0.193359 0.58007,0.121757 1.14224,0.307955 1.68652,0.558594" id="path3633"/>
        <path d="m -123.51367,-6.0478516 c -1.59701,6.1e-6 -2.70346,0.1826231 -3.31934,0.5478516 -0.61589,0.3652395 -0.92383,0.9882858 -0.92383,1.8691406 0,0.7018259 0.22917,1.2604191 0.6875,1.6757813 0.46549,0.4082046 1.0957,0.612306 1.89063,0.6123047 1.0957,1.3e-6 1.97297,-0.3867171 2.63183,-1.1601563 0.66601,-0.7805957 0.99902,-1.8154254 0.99903,-3.1044922 l 0,-0.4404297 -1.96582,0 m 3.94238,-0.8164062 0,6.8642578 -1.97656,0 0,-1.8261719 c -0.45118,0.7304699 -1.01336,1.27115943 -1.68653,1.62207034 -0.67318,0.34374986 -1.49675,0.51562469 -2.4707,0.515625 -1.23177,-3.1e-7 -2.21289,-0.34374997 -2.94336,-1.03125 -0.72331,-0.69466004 -1.08496,-1.62206794 -1.08496,-2.78222654 0,-1.3535108 0.45117,-2.3740176 1.35352,-3.0615235 0.9095,-0.6874927 2.26301,-1.0312424 4.06054,-1.03125 l 2.77149,0 0,-0.1933593 c -1e-5,-0.9094965 -0.30079,-1.6113188 -0.90235,-2.1054688 -0.5944,-0.5012913 -1.43229,-0.7519423 -2.51367,-0.7519533 -0.6875,1.1e-5 -1.3571,0.08237 -2.00879,0.24707 -0.65169,0.164724 -1.27832,0.4117943 -1.87988,0.7412114 l 0,-1.8261714 c 0.72331,-0.279286 1.42513,-0.486968 2.10547,-0.623047 0.68033,-0.143217 1.34277,-0.214832 1.9873,-0.214844 1.74023,1.2e-5 3.04003,0.451184 3.89942,1.353516 0.85936,0.902353 1.28905,2.2701906 1.28906,4.1035152" id="path3635"/>
        <path d="m -115.48926,-16.714844 1.97656,0 0,16.714844 -1.97656,0 0,-16.714844" id="path3637"/>
        <path d="m -93.016602,-9.7216797 c 0.494129,-0.8880103 1.084949,-1.5432833 1.772461,-1.9658203 0.687486,-0.422514 1.49673,-0.633777 2.427735,-0.633789 1.253238,1.2e-5 2.220034,0.440442 2.90039,1.321289 0.68032,0.873708 1.020489,2.1198005 1.020508,3.7382813 l 0,7.2617187 -1.987304,0 0,-7.1972656 c -1.8e-5,-1.1529865 -0.204119,-2.0087799 -0.612305,-2.5673828 -0.40822,-0.5585836 -1.031266,-0.8378796 -1.869141,-0.8378906 -1.024102,1.1e-5 -1.833346,0.340179 -2.427734,1.0205077 -0.594413,0.6803475 -0.891614,1.6077554 -0.891602,2.7822266 l 0,6.7998047 -1.987304,0 0,-7.1972656 c -1e-5,-1.1601479 -0.204112,-2.0159413 -0.612305,-2.5673828 -0.408212,-0.5585836 -1.03842,-0.8378796 -1.890625,-0.8378906 -1.009772,1.1e-5 -1.811855,0.34376 -2.40625,1.0312499 -0.594402,0.6803475 -0.891602,1.6041747 -0.891602,2.7714844 l 0,6.7998047 -1.9873,0 0,-12.03125 1.9873,0 0,1.869141 c 0.45117,-0.73762 0.991857,-1.28189 1.622071,-1.632813 0.630202,-0.350899 1.378573,-0.526355 2.245117,-0.526367 0.873689,1.2e-5 1.614899,0.222017 2.223633,0.666016 0.615874,0.444021 1.070626,1.088552 1.364257,1.9335933" id="path3639"/>
        <path d="m -80.942383,-12.03125 1.976563,0 0,12.03125 -1.976563,0 0,-12.03125 m 0,-4.683594 1.976563,0 0,2.50293 -1.976563,0 0,-2.50293" id="path3641"/>
        <path d="m -64.839844,-7.2617187 0,7.2617187 -1.976562,0 0,-7.1972656 c -1e-5,-1.1386636 -0.222015,-1.9908763 -0.666016,-2.5566407 -0.444019,-0.5657447 -1.110034,-0.8486217 -1.998047,-0.8486327 -1.067063,1.1e-5 -1.908534,0.340179 -2.524414,1.0205077 -0.61589,0.6803475 -0.923832,1.6077554 -0.923828,2.7822266 l 0,6.7998047 -1.987305,0 0,-12.03125 1.987305,0 0,1.869141 c 0.472652,-0.723297 1.027664,-1.263986 1.665039,-1.622071 0.644525,-0.35806 1.385735,-0.537097 2.223633,-0.537109 1.382152,1.2e-5 2.427724,0.429699 3.136719,1.289062 0.708972,0.852224 1.063464,2.1090588 1.063476,3.7705083" id="path3643"/>
        <path d="m -60.875977,-12.03125 1.976563,0 0,12.03125 -1.976563,0 0,-12.03125 m 0,-4.683594 1.976563,0 0,2.50293 -1.976563,0 0,-2.50293" id="path3645"/>
        <path d="m -45.407227,-9.7216797 c 0.494129,-0.8880103 1.084949,-1.5432833 1.772461,-1.9658203 0.687486,-0.422514 1.49673,-0.633777 2.427735,-0.633789 1.253238,1.2e-5 2.220034,0.440442 2.90039,1.321289 0.68032,0.873708 1.020489,2.1198005 1.020508,3.7382813 l 0,7.2617187 -1.987304,0 0,-7.1972656 c -1.8e-5,-1.1529865 -0.204119,-2.0087799 -0.612305,-2.5673828 -0.40822,-0.5585836 -1.031266,-0.8378796 -1.869141,-0.8378906 -1.024102,1.1e-5 -1.833346,0.340179 -2.427734,1.0205077 -0.594413,0.6803475 -0.891614,1.6077554 -0.891602,2.7822266 l 0,6.7998047 -1.987304,0 0,-7.1972656 c -10e-6,-1.1601479 -0.204112,-2.0159413 -0.612305,-2.5673828 -0.408212,-0.5585836 -1.03842,-0.8378796 -1.890625,-0.8378906 -1.009772,1.1e-5 -1.811855,0.34376 -2.40625,1.0312499 -0.594405,0.6803475 -0.891606,1.6041747 -0.891602,2.7714844 l 0,6.7998047 -1.987304,0 0,-12.03125 1.987304,0 0,1.869141 c 0.451168,-0.73762 0.991857,-1.28189 1.622071,-1.632813 0.630202,-0.350899 1.378573,-0.526355 2.245117,-0.526367 0.873689,1.2e-5 1.614899,0.222017 2.223633,0.666016 0.615874,0.444021 1.070626,1.088552 1.364257,1.9335933" id="path3647"/>
        <path d="m -33.537109,-4.7480469 0,-7.2832031 1.976562,0 0,7.2080078 c -4e-6,1.1386756 0.222001,1.994469 0.666016,2.5673828 0.444005,0.5657569 1.11002,0.8486342 1.998047,0.8486328 1.067049,1.4e-6 1.90852,-0.3401675 2.524414,-1.0205078 0.623037,-0.6803354 0.93456,-1.6077433 0.93457,-2.7822265 l 0,-6.8212891 1.976563,0 0,12.03125 -1.976563,0 0,-1.8476562 c -0.479827,0.7304698 -1.03842,1.27474011 -1.675781,1.63281245 -0.630216,0.35091132 -1.364265,0.52636688 -2.202149,0.52636719 -1.382166,-3.1e-7 -2.431318,-0.42968738 -3.147461,-1.2890625 -0.716148,-0.85937314 -1.07422,-2.11620784 -1.074218,-3.77050784 m 4.973632,-7.5732421 0,0" id="path3649"/>
        <path d="m -10.000977,-9.7216797 c 0.4941291,-0.8880103 1.0849488,-1.5432833 1.7724614,-1.9658203 0.6874861,-0.422514 1.4967301,-0.633777 2.4277344,-0.633789 1.2532383,1.2e-5 2.2200342,0.440442 2.9003906,1.321289 0.6803193,0.873708 1.0204882,2.1198005 1.0205078,3.7382813 l 0,7.2617187 -1.9873047,0 0,-7.1972656 c -1.76e-5,-1.1529865 -0.2041189,-2.0087799 -0.6123047,-2.5673828 -0.4082197,-0.5585836 -1.0312659,-0.8378796 -1.8691406,-0.8378906 -1.0241026,1.1e-5 -1.8333466,0.340179 -2.4277344,1.0205077 -0.5944131,0.6803475 -0.8916133,1.6077554 -0.8916016,2.7822266 l 0,6.7998047 -1.9873042,0 0,-7.1972656 c -1e-5,-1.1601479 -0.204112,-2.0159413 -0.612305,-2.5673828 -0.408212,-0.5585836 -1.03842,-0.8378796 -1.890625,-0.8378906 -1.009772,1.1e-5 -1.811855,0.34376 -2.40625,1.0312499 -0.594405,0.6803475 -0.891606,1.6041747 -0.891602,2.7714844 l 0,6.7998047 -1.987304,0 0,-12.03125 1.987304,0 0,1.869141 c 0.451168,-0.73762 0.991857,-1.28189 1.622071,-1.632813 0.630202,-0.350899 1.378573,-0.526355 2.245117,-0.526367 0.873689,1.2e-5 1.614899,0.222017 2.223633,0.666016 0.615874,0.444021 1.070626,1.088552 1.364257,1.9335933" id="path3651"/>
      </g>
    </g>
    <g id="g3520" style="color:#000000;fill:none;stroke:none">
      <path d="m 105.4,44.4 9.6,12.1 2.3,-3.2 0,0 2.4,-3.2 z" id="polygon3522" style="fill:currentColor"/>
    </g>
    <path d="m 117.3,53.3 2.4,-3.2 -14.3,-5.7 9.6,12.1 2.3,-3.2 m 29.5,21.9 -29.5,-21.9" id="path3524" style="color:#000000;fill:none;stroke:currentColor;stroke-width:1;stroke-linecap:butt;stroke-linejoin:miter"/>
    <g id="g3526" style="color:#000000;fill:none;stroke:none">
      <path d="m 187,323.4 9.6,12.1 2.3,-3.2 0,0 2.4,-3.2 z" id="polygon3528" style="fill:currentColor"/>
    </g>
    <path d="m 198.9,332.3 2.4,-3.2 -14.3,-5.7 9.6,12.1 2.3,-3.2 m 29.5,21.9 -29.5,-21.9" id="path3530" style="color:#000000;fill:none;stroke:currentColor;stroke-width:1;stroke-linecap:butt;stroke-linejoin:miter"/>
    <g id="g3532" style="color:#000000;fill:none;stroke:none">
      <path d="m 333.1,178.8 -9.5,-12.1 -2.4,3.2 0,0 -2.4,3.2 z" id="polygon3534" style="fill:currentColor"/>
    </g>
    <path d="m 321.2,169.9 -2.4,3.2 14.3,5.7 -9.5,-12.1 -2.4,3.2 m -29.5,-22 29.5,22" id="path3536" style="color:#000000;fill:none;stroke:currentColor;stroke-width:1;stroke-linecap:butt;stroke-linejoin:miter"/>
    <g id="g3538" style="color:#000000;fill:none;stroke:none">
      <path d="m 473.7,256.6 -14.4,5.7 2.4,3.2 0,0 2.4,3.2 z" id="polygon3540" style="fill:currentColor"/>
    </g>
    <path d="m 461.7,265.5 2.4,3.2 9.6,-12.1 -14.4,5.7 2.4,3.2 m -29.5,21.9 29.5,-21.9" id="path3542" style="color:#000000;fill:none;stroke:currentColor;stroke-width:1;stroke-linecap:butt;stroke-linejoin:miter"/>
    <path d="m 105.4,44.4 4.1,38.9 4.2,33.5 4.2,29.3 4.2,25.7 4.2,22.7 4.2,20.1 4.2,17.9 4.1,15.8 4.2,13.9 4.2,12.2 4.2,10.6 4.2,9.1 4.2,7.8 4.2,6.4 4.2,5.2 4.1,4 4.2,3 4.2,1.9 4.2,0.9 4.2,0 4.2,-0.9 4.2,-1.6 4.1,-2.4 4.2,-3.1 4.2,-3.7 4.2,-4.2 4.2,-4.7 4.2,-5.2 4.2,-5.5 4.2,-5.8 4.1,-6.1 4.2,-6.3 4.2,-6.4 4.2,-6.5 4.2,-6.5 4.2,-6.5 4.2,-6.4 4.2,-6.2 4.1,-6.1 4.2,-5.9 4.2,-5.7 4.2,-5.3 4.2,-5.1 4.2,-4.6 4.2,-4.3 4.1,-3.9 4.2,-3.5 4.2,-3.1 4.2,-2.6 4.2,-2.2 4.2,-1.7 4.2,-1.3 4.2,-0.8 4.1,-0.4 4.2,0 4.2,0.5 4.2,0.8 4.2,1.3 4.2,1.6 4.2,1.9 4.1,2.2 4.2,2.6 4.2,2.7 4.2,3 4.2,3.2 4.2,3.4 4.2,3.4 4.2,3.6 4.1,3.6 4.2,3.6 4.2,3.7 4.2,3.6 4.2,3.5 4.2,3.4 4.2,3.3 4.2,3.2 4.1,3 4.2,2.8 4.2,2.5 4.2,2.4 4.2,2.1 4.2,1.8 4.2,1.6 4.1,1.2 4.2,1 4.2,0.8 4.2,0.4 4.2,0.1 4.2,-0.1 4.2,-0.5 4.2,-0.6 4.1,-1 4.2,-1.2 4.2,-1.4 4.2,-1.6 4.2,-1.8 4.2,-1.9 4.2,-2.2 4.2,-2.2" id="path3546" style="color:#000000;fill:none;stroke:currentColor;stroke-width:3;stroke-linecap:butt;stroke-linejoin:miter"/>
    <path d="m 63.9,25.2 0,400.8 497.4,0 0,-400.8 -497.4,0 z" id="path3550" style="color:#000000;fill:none;stroke:currentColor;stroke-width:1;stroke-linecap:butt;stroke-linejoin:miter"/>
  </g>
<script xmlns=""/></svg>